inDegrees=yes
name=IK-live
DataType=double
version=3
OpenSimVersion=4.1
endheader
time	pelvis_tilt	pelvis_list	pelvis_rotation	pelvis_tx	pelvis_ty	pelvis_tz	hip_flexion_r	hip_adduction_r	hip_rotation_r	knee_angle_r	ankle_angle_r	subtalar_angle_r	mtp_angle_r	hip_flexion_l	hip_adduction_l	hip_rotation_l	knee_angle_l	ankle_angle_l	subtalar_angle_l	mtp_angle_l	lumbar_extension	lumbar_bending	lumbar_rotation	neck_flex	neck_latbend	neck_rot	arm_flex_r	arm_add_r	arm_rot_r	elbow_flex_r	pro_sup_r	wrist_flex_r	wrist_dev_r	arm_flex_l	arm_add_l	arm_rot_l	elbow_flex_l	pro_sup_l	wrist_flex_l	wrist_dev_l
25.0494747	-4.055719801083206	65.70313572409654	-260.6246761433656	0.2341366603171506	0.04326292228651554	-1.326684523481465	-22.57117169827992	-1.591976316804377	-3.241458145969817	5.899560354604904	2.451982624139334	1.987972377786656	0	-24.74788768789517	-3.395140484746916	-11.58000132048591	9.793848132074926	-0.4439473045988533	4.250290820099795	0	-21.37711699760957	1.659277491615732	3.206407148933037	0	0	0	0.7955717807991088	-15.17643520107877	33.2913820727933	7.281841502153148	24.92590169916598	0	0.03606418213406638	5.885168963513871	-13.2304675177622	43.86904102429358	7.103899929250716	33.50551836496179	0	0.03606418213406638
25.2013632	9.912129971803342	52.46519050798443	-263.2536436540525	0.2341366603171506	0.04326292228651554	-1.326684523481465	-22.57117169827992	-1.591976316804377	-3.241458145969817	5.899560354604904	2.451982624139334	1.987972377786656	0	-24.74788768789517	-3.395140484746916	-11.58000132048591	9.793848132074926	-0.4439473045988533	4.250290820099795	0	-21.37711699760957	1.659277491615732	3.206407148933037	0	0	0	0.7888280857289292	-15.17646477048132	33.3001793381893	7.161055607365054	24.90304784808709	0	0.02559606270189709	5.87903152974544	-13.23017087214076	43.88216502987073	6.979882719887951	33.49430415125801	0	0.02559606270189709
25.3641924	14.01781836758423	37.8430768543186	-259.4106152827866	0.2341366603171506	0.04326292228651554	-1.326684523481465	-22.57117169827992	-1.591976316804377	-3.241458145969817	5.899560354604904	2.451982624139334	1.987972377786656	0	-24.74788768789517	-3.395140484746916	-11.58000132048591	9.793848132074926	-0.4439473045988533	4.250290820099795	0	-21.37711699760957	1.659277491615732	3.206407148933037	0	0	0	0.7858717732081585	-15.17647773040902	33.3040342865762	7.107696650397014	24.89303586232811	0	0.02101065346854429	5.87634092925883	-13.23004085581431	43.88791561634169	6.925066578183332	33.48939193107968	0	0.02101065346854429
25.5251509	-4.098095631396256	18.18993766169559	-250.9074689545887	0.2341366603171506	0.04326292228651554	-1.326684523481465	-22.57117169827992	-1.591976316804377	-3.241458145969817	5.899560354604904	2.451982624139334	1.987972377786656	0	-24.74788768789517	-3.395140484746916	-11.58000132048591	9.793848132074926	-0.4439473045988533	4.250290820099795	0	-21.37711699760957	1.659277491615732	3.206407148933037	0	0	0	0.7818356549151355	-15.17649539914725	33.30927936531576	7.036654545302778	24.87951946620057	0	0.01484051595635811	5.872666960490069	-13.22986360014539	43.89573246333653	6.852108363161655	33.48274794647335	0	0.01484051595635811
25.6869911	1.946714352621526	8.125186525824294	-249.8381948324069	0.2341366603171506	0.04326292228651554	-1.326684523481465	-22.57117169827992	-1.591976316804377	-3.241458145969817	5.899560354604904	2.451982624139334	1.987972377786656	0	-24.74788768789517	-3.395140484746916	-11.58000132048591	9.793848132074926	-0.4439473045988533	4.250290820099795	0	-21.37711699760957	1.659277491615732	3.206407148933037	0	0	0	0.7774611959496698	-15.1765145356304	33.31495477362346	6.959567696016943	24.8649460424531	0	0.008198857936991466	5.868684721270941	-13.229671619963	43.90418705912239	6.77288889694763	33.4755799193556	0	0.008198857936991466
25.8499825	-2.803682585249129	-11.40930285354737	-253.0251880087831	0.2341366603171506	0.04326292228651554	-1.326684523481465	-22.57117169827992	-1.591976316804377	-3.241458145969817	5.899560354604904	2.451982624139334	1.987972377786656	0	-24.74788768789517	-3.395140484746916	-11.58000132048591	9.793848132074926	-0.4439473045988533	4.250290820099795	0	-21.37711699760957	1.659277491615732	3.206407148933037	0	0	0	0.7833379764830778	-15.17648881027187	33.30731884701863	7.063473767659739	24.88460638441363	0	0.01716801141337008	5.87403416120737	-13.22992970095591	43.8928077411436	6.879645430892378	33.48524505649159	0	0.01716801141337008
26.0137746	-4.951922291146667	-22.60837414157692	-256.7274760100399	0.2341366603171506	0.04326292228651554	-1.326684523481465	-22.57117169827992	-1.591976316804377	-3.241458145969817	5.899560354604904	2.451982624139334	1.987972377786656	0	-24.74788768789517	-3.395140484746916	-11.58000132048591	9.793848132074926	-0.4439473045988533	4.250290820099795	0	-21.37711699760957	1.659277491615732	3.206407148933037	0	0	0	0.7847873053289584	-15.17648245355802	33.30542675155293	7.090021923494158	24.88953176959255	0	0.01942536444971885	5.87535313436279	-13.22999347269154	43.88998431559606	6.906934992199379	33.48766005455757	0	0.01942536444971885
26.1737728	-2.469471324529194	-23.27518509430452	-255.0221600940103	0.2341366603171506	0.04326292228651554	-1.326684523481465	-22.57117169827992	-1.591976316804377	-3.241458145969817	5.899560354604904	2.451982624139334	1.987972377786656	0	-24.74788768789517	-3.395140484746916	-11.58000132048591	9.793848132074926	-0.4439473045988533	4.250290820099795	0	-21.37711699760957	1.659277491615732	3.206407148933037	0	0	0	0.7848212573779829	-15.17648230509263	33.30538278394878	7.090580152723573	24.8896433756712	0	0.01947592256699972	5.875384042839793	-13.22999496211832	43.88991888306798	6.90750719064248	33.48771515115014	0	0.01947592256699972
26.3266756	-0.7676967735629695	-22.44609575276577	-252.4508771282169	0.2341366603171506	0.04326292228651554	-1.326684523481465	-22.57117169827992	-1.591976316804377	-3.241458145969817	5.899560354604904	2.451982624139334	1.987972377786656	0	-24.74788768789517	-3.395140484746916	-11.58000132048591	9.793848132074926	-0.4439473045988533	4.250290820099795	0	-21.37711699760957	1.659277491615732	3.206407148933037	0	0	0	0.7848661764977571	-15.17648210994611	33.3053255113329	7.09123457708789	24.88978391809444	0	0.01953870565894439	5.875424968068173	-13.22999691984207	43.88983400992773	6.908176491687114	33.48778510194663	0	0.01953870565894439
